<?xml version="1.0" encoding="UTF-8"?><svg id="Layer_1" xmlns="http://www.w3.org/2000/svg" viewBox="0 0 99.15 112.18"><defs><style>.cls-1{fill:#313639;}.cls-1,.cls-2{stroke-width:0px;}.cls-2{fill:#fff;}</style></defs><path class="cls-1" d="M0,0v62.61c0,27.38,22.2,49.58,49.58,49.58s49.58-22.2,49.58-49.58V0H0Z"/><path class="cls-2" d="M93.71,5.44h-8.76l-35.37,35.37h0s0,0,0,0L14.21,5.44H5.44v10l34.75,34.75-30.75,30.75c1.91,4.19,4.43,7.96,7.47,11.3l32.66-32.66h0s0,0,0,0l32.66,32.66c3.04-3.34,5.56-7.11,7.47-11.3l-30.75-30.75L93.71,15.45V5.44Z"/><path class="cls-1" d="M57.79,48.07c-1.32-.97-2.54,1.19-2.54,1.19-.83-1.13-1.63.09-1.63.09,1.12.77,1.02,2.59-1.1,2.13-2.12-.46-2.35-2.3-2.35-2.3l1.59.58v-2.65s-1.52.57-1.52.57l.51-1.86h-2.39l.51,1.86-1.52-.57v2.65s1.59-.58,1.59-.58c0,0-.23,1.83-2.35,2.3-2.12.46-2.22-1.36-1.1-2.13,0,0-.8-1.22-1.63-.09,0,0-1.21-2.15-2.54-1.19,0,0,1.87,2.3,2.1,8.45,0,0,1.76-1.13,6.14-1.09,4.38-.04,6.14,1.09,6.14,1.09.23-6.14,2.1-8.45,2.1-8.45"/><path class="cls-1" d="M42.48,46.99c.14.03.27.08.39.13,1.18-2.52,3.74-4.26,6.71-4.26s5.52,1.74,6.71,4.26c.13-.05.26-.1.39-.13.41-.09.82-.05,1.21.12-1.12-2.94-3.75-5.13-6.94-5.62l-1.37,1.37h0s0,0,0,0l-1.37-1.37c-3.19.49-5.82,2.69-6.94,5.62.38-.17.79-.21,1.21-.12Z"/><path class="cls-1" d="M49.56,57.25h0s1.66,1.66,1.66,1.66c2.24-.16,3.87-.63,3.87-1.19,0-.69-2.48-1.25-5.53-1.25s-5.53.56-5.53,1.25c0,.56,1.63,1.03,3.87,1.19l1.66-1.66h0Z"/><path class="cls-2" d="M60.36,7.31c.85,0,1.53.69,1.54,1.53v16.67h-10.59c-.24.72-.92,1.25-1.72,1.25h0c-.8,0-1.48-.53-1.72-1.25h-10.59V8.85c0-.85.69-1.53,1.54-1.53v16.67h9.12s1.37-.03,1.67,1.52c.29-1.55,1.67-1.52,1.67-1.52h9.11V7.31M54.53,6.6c1.75,1.37,4.27.72,4.27.72v15.16s-2.52.66-4.27-.72c-1.74-1.37-4.91-.23-4.95,1.4v.03s0,0,0-.01c0,0,0,0,0,.01v-.03c-.04-1.63-3.21-2.77-4.95-1.4-1.75,1.37-4.27.72-4.27.72V7.32s2.52.66,4.27-.72c1.75-1.37,4.93-.22,4.95,1.42.02-1.64,3.21-2.79,4.95-1.42M47.33,17.29c-.31-.09-1.53-.37-2.67.35-1.14.72-2.17.69-2.43.67v1.09c.25.02,1.28.05,2.43-.67,1.14-.72,2.36-.44,2.67-.35v-1.09ZM47.33,13.22c-.31-.09-1.53-.37-2.67.35-1.14.72-2.17.69-2.43.67v1.09c.25.02,1.28.05,2.43-.67,1.14-.72,2.36-.44,2.67-.35v-1.09ZM47.33,9.14c-.31-.09-1.53-.37-2.67.35-1.14.72-2.17.69-2.43.67v1.09c.25.02,1.28.05,2.43-.67,1.14-.72,2.36-.44,2.67-.35v-1.09ZM56.92,18.31c-.25.02-1.28.05-2.43-.67-1.14-.72-2.36-.44-2.67-.35v1.09c.31-.09,1.53-.37,2.67.35,1.14.72,2.17.69,2.43.67v-1.09ZM56.92,14.23c-.25.02-1.28.05-2.43-.67-1.14-.72-2.36-.44-2.67-.35v1.09c.31-.09,1.53-.37,2.67.35,1.14.72,2.17.69,2.43.67v-1.09ZM56.92,10.16c-.25.02-1.28.05-2.43-.67-1.14-.72-2.36-.44-2.67-.35v1.09c.31-.09,1.53-.37,2.67.35,1.14.72,2.17.69,2.43.67v-1.09Z"/><path class="cls-2" d="M33.09,96.29c0-.07.05-.13.13-.13h2.79c.08,0,.13.06.13.13v.56c0,.07-.05.13-.13.13h-2.03v1.12h1.69c.07,0,.13.06.13.13v.57c0,.08-.06.13-.13.13h-1.69v1.2h2.03c.08,0,.13.06.13.13v.56c0,.07-.05.13-.13.13h-2.79c-.07,0-.13-.06-.13-.13v-4.54ZM37.76,100.49c.14.13.64.53,1.51.53.97,0,1.58-.65,1.58-1.36,0-.88-.77-1.28-1.43-1.55-.56-.23-.81-.44-.81-.77,0-.22.21-.48.6-.48s.9.34.95.38c.08.05.19,0,.24-.08l.26-.39c.05-.07.03-.18-.04-.23-.14-.1-.67-.46-1.37-.46-1.09,0-1.54.7-1.54,1.31,0,.81.64,1.22,1.29,1.48.58.23.87.47.87.82,0,.29-.27.53-.62.53-.45,0-1-.4-1.03-.42-.06-.05-.18-.05-.23.05l-.25.43c-.06.11-.03.14.04.21M43.21,100.83c0,.07.06.13.13.13h.64c.07,0,.13-.06.13-.13v-3.84h1.05c.08,0,.13-.06.13-.13v-.56c0-.07-.06-.13-.13-.13h-2.99c-.08,0-.13.06-.13.13v.56c0,.07.06.13.13.13h1.05v3.84ZM51.29,100.83c0,.07.05.13.13.13h.59c.07,0,.12-.06.12-.13v-4.4c0-.07-.05-.13-.12-.13h-.48l-.99.83s-.04.07-.03.12l.04.34c0,.06.08.1.14.09l.6-.13v3.28ZM53.72,99.71c0-.6.64-1.05.83-1.14v-.02c-.28-.15-.71-.53-.71-1.06,0-.76.66-1.25,1.49-1.25s1.51.49,1.51,1.25c0,.52-.42.89-.71,1.05v.03c.31.16.83.55.83,1.14,0,.75-.63,1.32-1.64,1.32s-1.61-.57-1.61-1.32M55.34,98.17c.42-.1.62-.36.62-.65,0-.33-.28-.58-.64-.58-.33,0-.61.25-.61.58,0,.31.19.55.62.65M54.63,99.7c0,.38.34.63.71.63s.71-.25.71-.63c0-.31-.25-.62-.71-.73-.46.1-.71.42-.71.73M58.26,99.96c-.08,0-.13-.06-.13-.13v-.57l2.47-3s.05-.04.1-.04h.37c.07,0,.13.05.13.13v2.92h.55c.08,0,.13.05.13.12v.43c0,.07-.06.13-.13.13h-.55v.88c0,.07-.06.13-.12.13h-.57c-.07,0-.13-.06-.13-.13v-.86h-2.12M60.4,99.25v-1.64l-1.37,1.64h1.37ZM63.05,100.46c.17.21.62.57,1.35.57.95,0,1.66-.71,1.66-1.57s-.6-1.52-1.57-1.52h-.59v-.91h1.52c.08,0,.13-.06.13-.13v-.47c0-.07-.05-.13-.13-.13h-2.16c-.08,0-.13.06-.13.13v2.02c0,.11.08.24.21.24h1.06c.54,0,.83.34.83.77s-.33.81-.79.81-.86-.36-.88-.38c-.05-.05-.12-.03-.16,0l-.34.34c-.08.08-.08.13.01.23M46.78,100.42c0,.3.24.54.54.54s.55-.24.55-.54-.24-.54-.55-.54-.54.24-.54.54M47.52,99.38c.89,0,1.62-.72,1.62-1.62s-.73-1.61-1.62-1.61h-1.03c-.09,0-.17.08-.17.17v2.88c0,.09.08.17.17.17h1.03M47.06,96.86h.41c.52,0,.89.38.89.9s-.37.91-.89.91h-.41v-1.81Z"/><path class="cls-2" d="M25.01,43.3c0-.79-.64-1.44-1.43-1.44s-1.44.64-1.44,1.44v6.79s-3.97-.46-6.19,4.3c0,0,1.62-5.11,5.38-5.22,0,0,0-12.68,0-12.69,0-.71-.58-1.29-1.29-1.29s-1.29.58-1.29,1.29v9.26s.86.16,1.06.23c0,0-.73-.06-1.06-.08-.26-.01-.51-.02-.76,0v-10.95c0-.71-.58-1.29-1.29-1.29s-1.29.58-1.29,1.29v11.14c-.26.03-.5.05-.74.08v-8.91c0-.65-.53-1.18-1.18-1.18s-1.17.53-1.17,1.18v9.29c-1.03.18-1.75.34-1.86.37.37-.17.74-.32,1.1-.45v-5.52c0-.54-.44-.97-.97-.97s-.95.43-.95.97v11.76c.1,2.7.85,7.81,5.24,7.76,0,0-1.08.41-2.38-.22,0,0,.06.25-.01,1.14-.07.9.06,1.67.26,2.02h7.86s-1.06-2.67,1.45-6.21c0,0,2.94-4.12,2.94-7.12v-6.79ZM12.52,52.83c4.13-6.9,7.95-4.86,7.95-4.86-4.45-.3-7.54,4.23-7.95,4.86Z"/><path class="cls-2" d="M80.8,42.76s2.75.26,3.15-2.36c0,0,.15,2.81,2.76,1.32,0,0-.25,2.86,2.48,1.51,0,0-.6,2.31,1.51,2.03,0,0,5.29-12.53-8.82-9.68,0,0,3.7-2.75,7.83-.52,0,0-3.66-5.36-11.77-.65,0,0,1.69.89.93,2.5,0,0-1.01.74-1.4,1.61-.39.87-.06,3.44-3.32,3.6,0,0-.52,1.62,1.7,2.24.41.12.5.02,1.52-.82,1.06-.88,3.39-.78,3.42-.78ZM78.52,39.1c.27-.49,1.18.33,1.18.33,0,0-.16-.02-.69.33-.65.42-.76-.16-.49-.65Z"/><path class="cls-2" d="M87.63,49.21c.27-.37,1.48-1.47,1.25-1.8-.89-1.28-3.78-4.16-5.98-3.2-.72.32-1.82.91-2.21,1.07-1.52.64-2.81,1.68-3.49,3.21-1.45,3.26,1.06,6.18,3.44,8.13,1.24,1.02,2.54,1.97,3.77,3,.91.76,2.05,2,1.61,3.3-.4,1.17-2.13,2-3.04.79-.41-.55-.46-1.48.18-1.89.68-.42,1.43.28,1.6.92.12-1.23-.28-2.68-1.63-3.02-1.27-.33-2.63.49-3.28,1.56-1.17,1.93-.47,4.85,1.46,6.03,2,1.22,4.84.48,6.15-1.41.83-1.19.93-2.76.38-4.08-.57-1.39-1.82-2.27-2.99-3.14-1.34-1-2.38-2.01-3.37-3.42-1.44-2.04-1.49-4.51-1.14-5.32-.4,1.74.68,3.5,1.74,4.79,1.23,1.48,2.8,2.6,4.37,3.69.82.57,1.58,1.23,2.04,2.13-.11-1.24-.71-2.39-1.36-3.43.53.1,1.26.24,1.76-.04.82-.45-.14-1.51-.51-1.92,1.21-.15,2.37-.9,2.79-2.07.5-1.37-.11-2.87-.74-4.09-1.03,4.31-4.47,2.48-2.79.21Z"/><path class="cls-2" d="M48.09,76.73c-.45.15-.91.28-1.37.37l.28,11,1.01-1.45.08-9.93ZM49.53,76.17c-.44.2-.89.38-1.36.53l.24,9.38,1.05-1.51.07-8.41ZM50.97,75.45c-.19.09-.37.19-.56.29-.25.13-.51.26-.78.39l.2,7.93,1.09-1.56.06-7.04ZM52.41,74.78c-.42.18-.87.39-1.34.62l.17,6.63,1.13-1.62.05-5.63ZM53.85,74.2c-.39.14-.84.32-1.33.53l.13,5.27,1.17-1.68.03-4.12ZM55.16,73.76s-.46.13-1.2.4l.1,3.81,1.1-1.58v-2.63ZM44.74,77.95c-.94-.02-1.8-.23-2.5-.7-.67,8.76,4.45,13.49,4.45,13.49-.36-.32-.85-.51-1.4-.4-.7.14-1.24.73-1.3,1.44-.09.97.67,1.79,1.62,1.79.41,0,.76-.16,1.06-.39,1.2-.94,2.36.24,2.44.34h0c-6.19-6.48-4.62-14.51-4.38-15.57ZM60.28,76.98c0,.86-.7,1.55-1.55,1.55-.36,0-.68-.14-.94-.35l-.3.56.66.43-6.57,14.34s-1.55,0-1.67,0c-.22-.14-.33-.35-.49-.53l8.13-15.04s0,0,0,0l-8.47,14.64c-.59-.71-1.1-1.45-1.54-2.19l9.83-14.17c.34-.5.78-.81,1.37-.81.86,0,1.55.7,1.55,1.55ZM59.27,73.54v1.56s-1.36-.41-2.05.56c-.66.93-9.25,13.24-9.96,14.26-.26-.49-.49-.97-.7-1.46l.09-11.36c-1.64.33-3.25.27-4.41-.52v-1.98s2.88,2.25,8.15.07c5.27-2.19,7-1.93,8.44-1.12,0,0-2.36-1.89-7.69.43-5.44,2.37-8.28.46-9.23-.37v-2.73s3.56,4.19,9.08,1.94c5.52-2.25,8.28.72,8.28.72Z"/></svg>